<svg width="21" height="23" viewBox="0 0 21 23" fill="none" xmlns="http://www.w3.org/2000/svg">
<path d="M17.5532 7.88985L17.4546 7H16.5593H4.35593H3.45481L3.36133 7.89626L2.0054 20.8963L1.89027 22H3H18H19.1169L18.9939 20.8899L17.5532 7.88985Z" stroke="black" stroke-width="2"/>
<path d="M14 6V7H15V6C15 3.36818 13.1065 1 10.5 1C7.89347 1 6 3.36818 6 6V7H7V6L7.00002 7H7.00007H7.00016H7.00029H7.00045H7.00064H7.00088H7.00114H7.00145H7.00178H7.00216H7.00257H7.00301H7.00349H7.004H7.00455H7.00514H7.00576H7.00641H7.0071H7.00783H7.00858H7.00938H7.01021H7.01107H7.01197H7.0129H7.01386H7.01486H7.0159H7.01697H7.01807H7.01921H7.02038H7.02158H7.02282H7.0241H7.0254H7.02675H7.02812H7.02953H7.03097H7.03245H7.03396H7.0355H7.03708H7.03868H7.04033H7.042H7.04371H7.04546H7.04723H7.04904H7.05088H7.05276H7.05467H7.05661H7.05858H7.06059H7.06263H7.0647H7.0668H7.06894H7.07111H7.07331H7.07554H7.07781H7.08011H7.08244H7.0848H7.0872H7.08962H7.09208H7.09457H7.0971H7.09965H7.10224H7.10486H7.10751H7.11019H7.1129H7.11565H7.11842H7.12123H7.12407H7.12694H7.12984H7.13277H7.13574H7.13873H7.14176H7.14482H7.1479H7.15102H7.15417H7.15735H7.16056H7.16381H7.16708H7.17038H7.17371H7.17708H7.18047H7.1839H7.18735H7.19084H7.19435H7.1979H7.20147H7.20508H7.20871H7.21238H7.21607H7.2198H7.22355H7.22734H7.23115H7.235H7.23887H7.24277H7.2467H7.25067H7.25466H7.25868H7.26273H7.2668H7.27091H7.27505H7.27921H7.28341H7.28763H7.29188H7.29616H7.30047H7.30481H7.30918H7.31357H7.318H7.32245H7.32693H7.33144H7.33598H7.34054H7.34514H7.34976H7.35441H7.35909H7.36379H7.36853H7.37329H7.37808H7.3829H7.38774H7.39262H7.39752H7.40244H7.4074H7.41238H7.41739H7.42243H7.4275H7.43259H7.43771H7.44285H7.44803H7.45323H7.45846H7.46371H7.46899H7.4743H7.47963H7.485H7.49038H7.4958H7.50124H7.50671H7.5122H7.51772H7.52327H7.52884H7.53444H7.54007H7.54572H7.55139H7.5571H7.56283H7.56858H7.57436H7.58017H7.586H7.59186H7.59775H7.60365H7.60959H7.61555H7.62154H7.62755H7.63358H7.63964H7.64573H7.65184H7.65798H7.66414H7.67033H7.67654H7.68278H7.68904H7.69533H7.70164H7.70797H7.71433H7.72072H7.72713H7.73356H7.74002H7.7465H7.75301H7.75954H7.76609H7.77267H7.77928H7.7859H7.79255H7.79923H7.80593H7.81265H7.8194H7.82617H7.83296H7.83978H7.84662H7.85348H7.86037H7.86728H7.87422H7.88117H7.88816H7.89516H7.90219H7.90924H7.91631H7.92341H7.93052H7.93767H7.94483H7.95202H7.95923H7.96646H7.97371H7.98099H7.98829H7.99561H8.00296H8.01033H8.01771H8.02513H8.03256H8.04002H8.04749H8.05499H8.06251H8.07006H8.07762H8.08521H8.09282H8.10045H8.1081H8.11577H8.12347H8.13118H8.13892H8.14668H8.15446H8.16226H8.17008H8.17793H8.18579H8.19368H8.20158H8.20951H8.21746H8.22543H8.23342H8.24143H8.24946H8.25751H8.26558H8.27367H8.28179H8.28992H8.29807H8.30625H8.31444H8.32266H8.33089H8.33915H8.34742H8.35571H8.36403H8.37236H8.38072H8.38909H8.39748H8.40589H8.41433H8.42278H8.43125H8.43974H8.44825H8.45678H8.46533H8.47389H8.48248H8.49109H8.49971H8.50835H8.51702H8.5257H8.5344H8.54312H8.55185H8.56061H8.56939H8.57818H8.58699H8.59582H8.60467H8.61354H8.62242H8.63132H8.64025H8.64918H8.65814H8.66712H8.67611H8.68512H8.69415H8.7032H8.71226H8.72135H8.73045H8.73956H8.7487H8.75785H8.76702H8.77621H8.78541H8.79463H8.80387H8.81313H8.8224H8.83169H8.841H8.85032H8.85966H8.86902H8.8784H8.88779H8.8972H8.90662H8.91606H8.92552H8.93499H8.94448H8.95399H8.96351H8.97305H8.98261H8.99218H9.00176H9.01137H9.02099H9.03062H9.04027H9.04994H9.05962H9.06932H9.07903H9.08876H9.09851H9.10827H9.11804H9.12784H9.13764H9.14746H9.1573H9.16715H9.17702H9.1869H9.1968H9.20671H9.21664H9.22658H9.23654H9.24651H9.25649H9.26649H9.27651H9.28654H9.29658H9.30664H9.31671H9.3268H9.3369H9.34702H9.35715H9.36729H9.37745H9.38762H9.3978H9.408H9.41822H9.42844H9.43868H9.44894H9.45921H9.46949H9.47978H9.49009H9.50041H9.51075H9.5211H9.53146H9.54183H9.55222H9.56262H9.57303H9.58346H9.5939H9.60435H9.61482H9.6253H9.63579H9.64629H9.6568H9.66733H9.67787H9.68843H9.69899H9.70957H9.72016H9.73076H9.74138H9.752H9.76264H9.77329H9.78395H9.79463H9.80531H9.81601H9.82672H9.83744H9.84817H9.85892H9.86967H9.88044H9.89122H9.90201H9.91281H9.92362H9.93445H9.94528H9.95613H9.96698H9.97785H9.98873H9.99962H10.0105H10.0214H10.0324H10.0433H10.0542H10.0652H10.0761H10.0871H10.0981H10.1091H10.1201H10.1311H10.1421H10.1532H10.1642H10.1753H10.1863H10.1974H10.2085H10.2196H10.2307H10.2418H10.2529H10.2641H10.2752H10.2864H10.2975H10.3087H10.3199H10.3311H10.3423H10.3535H10.3647H10.3759H10.3872H10.3984H10.4097H10.4209H10.4322H10.4435H10.4548H10.4661H10.4774H10.4887H10.5H10.5113H10.5226H10.5339H10.5452H10.5565H10.5678H10.5791H10.5903H10.6016H10.6128H10.6241H10.6353H10.6465H10.6577H10.6689H10.6801H10.6913H10.7025H10.7136H10.7248H10.7359H10.7471H10.7582H10.7693H10.7804H10.7915H10.8026H10.8137H10.8247H10.8358H10.8468H10.8579H10.8689H10.8799H10.8909H10.9019H10.9129H10.9239H10.9348H10.9458H10.9567H10.9676H10.9786H10.9895H11.0004H11.0113H11.0221H11.033H11.0439H11.0547H11.0656H11.0764H11.0872H11.098H11.1088H11.1196H11.1303H11.1411H11.1518H11.1626H11.1733H11.184H11.1947H11.2054H11.216H11.2267H11.2374H11.248H11.2586H11.2692H11.2798H11.2904H11.301H11.3116H11.3221H11.3327H11.3432H11.3537H11.3642H11.3747H11.3852H11.3956H11.4061H11.4165H11.427H11.4374H11.4478H11.4582H11.4685H11.4789H11.4893H11.4996H11.5099H11.5202H11.5305H11.5408H11.5511H11.5613H11.5716H11.5818H11.592H11.6022H11.6124H11.6226H11.6327H11.6429H11.653H11.6631H11.6732H11.6833H11.6934H11.7034H11.7135H11.7235H11.7335H11.7435H11.7535H11.7635H11.7734H11.7834H11.7933H11.8032H11.8131H11.823H11.8328H11.8427H11.8525H11.8624H11.8722H11.882H11.8917H11.9015H11.9112H11.921H11.9307H11.9404H11.9501H11.9597H11.9694H11.979H11.9886H11.9982H12.0078H12.0174H12.0269H12.0365H12.046H12.0555H12.065H12.0745H12.0839H12.0934H12.1028H12.1122H12.1216H12.131H12.1403H12.1497H12.159H12.1683H12.1776H12.1869H12.1961H12.2054H12.2146H12.2238H12.233H12.2421H12.2513H12.2604H12.2696H12.2787H12.2877H12.2968H12.3058H12.3149H12.3239H12.3329H12.3419H12.3508H12.3598H12.3687H12.3776H12.3865H12.3953H12.4042H12.413H12.4218H12.4306H12.4394H12.4481H12.4569H12.4656H12.4743H12.483H12.4916H12.5003H12.5089H12.5175H12.5261H12.5347H12.5432H12.5518H12.5603H12.5688H12.5772H12.5857H12.5941H12.6025H12.6109H12.6193H12.6276H12.636H12.6443H12.6526H12.6609H12.6691H12.6773H12.6856H12.6938H12.7019H12.7101H12.7182H12.7263H12.7344H12.7425H12.7505H12.7586H12.7666H12.7746H12.7825H12.7905H12.7984H12.8063H12.8142H12.8221H12.8299H12.8377H12.8455H12.8533H12.8611H12.8688H12.8765H12.8842H12.8919H12.8996H12.9072H12.9148H12.9224H12.9299H12.9375H12.945H12.9525H12.96H12.9674H12.9749H12.9823H12.9897H12.997H13.0044H13.0117H13.019H13.0263H13.0335H13.0408H13.048H13.0552H13.0623H13.0695H13.0766H13.0837H13.0908H13.0978H13.1048H13.1118H13.1188H13.1258H13.1327H13.1396H13.1465H13.1534H13.1602H13.167H13.1738H13.1806H13.1873H13.1941H13.2008H13.2074H13.2141H13.2207H13.2273H13.2339H13.2405H13.247H13.2535H13.26H13.2664H13.2729H13.2793H13.2857H13.292H13.2984H13.3047H13.311H13.3172H13.3235H13.3297H13.3359H13.342H13.3482H13.3543H13.3604H13.3664H13.3725H13.3785H13.3844H13.3904H13.3963H13.4023H13.4081H13.414H13.4198H13.4256H13.4314H13.4372H13.4429H13.4486H13.4543H13.4599H13.4656H13.4712H13.4767H13.4823H13.4878H13.4933H13.4988H13.5042H13.5096H13.515H13.5204H13.5257H13.531H13.5363H13.5415H13.5468H13.552H13.5571H13.5623H13.5674H13.5725H13.5776H13.5826H13.5876H13.5926H13.5976H13.6025H13.6074H13.6123H13.6171H13.6219H13.6267H13.6315H13.6362H13.6409H13.6456H13.6502H13.6549H13.6595H13.664H13.6686H13.6731H13.6775H13.682H13.6864H13.6908H13.6952H13.6995H13.7038H13.7081H13.7124H13.7166H13.7208H13.725H13.7291H13.7332H13.7373H13.7413H13.7453H13.7493H13.7533H13.7572H13.7611H13.765H13.7688H13.7727H13.7764H13.7802H13.7839H13.7876H13.7913H13.7949H13.7985H13.8021H13.8056H13.8092H13.8126H13.8161H13.8195H13.8229H13.8263H13.8296H13.8329H13.8362H13.8394H13.8426H13.8458H13.849H13.8521H13.8552H13.8582H13.8613H13.8643H13.8672H13.8702H13.8731H13.8759H13.8788H13.8816H13.8844H13.8871H13.8898H13.8925H13.8951H13.8978H13.9003H13.9029H13.9054H13.9079H13.9104H13.9128H13.9152H13.9176H13.9199H13.9222H13.9245H13.9267H13.9289H13.9311H13.9332H13.9353H13.9374H13.9394H13.9414H13.9434H13.9453H13.9472H13.9491H13.951H13.9528H13.9545H13.9563H13.958H13.9597H13.9613H13.9629H13.9645H13.966H13.9676H13.969H13.9705H13.9719H13.9733H13.9746H13.9759H13.9772H13.9784H13.9796H13.9808H13.9819H13.983H13.9841H13.9851H13.9861H13.9871H13.988H13.9889H13.9898H13.9906H13.9914H13.9922H13.9929H13.9936H13.9942H13.9949H13.9954H13.996H13.9965H13.997H13.9974H13.9978H13.9982H13.9986H13.9989H13.9991H13.9994H13.9996H13.9997H13.9998H13.9999H14L14 6Z" stroke="black" stroke-width="2"/>
</svg>
