<svg width="29" height="30" viewBox="0 0 29 30" fill="none" xmlns="http://www.w3.org/2000/svg">
<path fill-rule="evenodd" clip-rule="evenodd" d="M26 28H28.2411L27.9871 25.7734L26.1623 9.77336L25.96 8H24.1752H8.71753H6.92073L6.72895 9.78654L5.94617 17.0788C6.28991 17.0269 6.64185 17 7.00007 17C7.32542 17 7.64558 17.0222 7.95912 17.0652L8.71753 10H24.1752L25.7719 24L26 26H23.987H13.7102C13.4952 26.7224 13.1667 27.396 12.7454 28H26Z" fill="black"/>
<path d="M22 8V9H23V8C23 4.21769 20.17 1 16.5 1C12.83 1 10 4.21769 10 8V9H11V8L11 9H11.0001H11.0003H11.0004H11.0007H11.001H11.0014H11.0018H11.0023H11.0028H11.0034H11.004H11.0047H11.0055H11.0063H11.0072H11.0081H11.009H11.0101H11.0112H11.0123H11.0135H11.0147H11.016H11.0174H11.0188H11.0203H11.0218H11.0234H11.025H11.0267H11.0284H11.0302H11.032H11.0339H11.0359H11.0379H11.0399H11.042H11.0442H11.0464H11.0487H11.051H11.0534H11.0558H11.0583H11.0608H11.0634H11.066H11.0687H11.0714H11.0742H11.0771H11.08H11.0829H11.0859H11.089H11.0921H11.0952H11.0984H11.1017H11.105H11.1083H11.1117H11.1152H11.1187H11.1223H11.1259H11.1295H11.1333H11.137H11.1408H11.1447H11.1486H11.1526H11.1566H11.1607H11.1648H11.1689H11.1732H11.1774H11.1817H11.1861H11.1905H11.195H11.1995H11.204H11.2086H11.2133H11.218H11.2228H11.2276H11.2324H11.2373H11.2423H11.2473H11.2523H11.2574H11.2626H11.2677H11.273H11.2783H11.2836H11.289H11.2944H11.2999H11.3054H11.311H11.3166H11.3223H11.328H11.3337H11.3395H11.3454H11.3513H11.3572H11.3632H11.3693H11.3754H11.3815H11.3877H11.3939H11.4002H11.4065H11.4129H11.4193H11.4257H11.4322H11.4388H11.4454H11.452H11.4587H11.4654H11.4722H11.479H11.4859H11.4928H11.4997H11.5067H11.5137H11.5208H11.528H11.5351H11.5424H11.5496H11.5569H11.5643H11.5717H11.5791H11.5866H11.5941H11.6017H11.6093H11.617H11.6247H11.6324H11.6402H11.648H11.6559H11.6638H11.6718H11.6798H11.6878H11.6959H11.704H11.7122H11.7204H11.7287H11.737H11.7453H11.7537H11.7621H11.7706H11.7791H11.7877H11.7963H11.8049H11.8136H11.8223H11.831H11.8398H11.8487H11.8576H11.8665H11.8754H11.8844H11.8935H11.9026H11.9117H11.9209H11.9301H11.9393H11.9486H11.9579H11.9673H11.9767H11.9861H11.9956H12.0052H12.0147H12.0243H12.034H12.0437H12.0534H12.0631H12.0729H12.0828H12.0927H12.1026H12.1125H12.1225H12.1326H12.1426H12.1527H12.1629H12.1731H12.1833H12.1936H12.2039H12.2142H12.2246H12.235H12.2454H12.2559H12.2665H12.277H12.2876H12.2983H12.3089H12.3197H12.3304H12.3412H12.352H12.3629H12.3738H12.3847H12.3957H12.4067H12.4177H12.4288H12.4399H12.4511H12.4623H12.4735H12.4847H12.496H12.5074H12.5187H12.5301H12.5416H12.553H12.5645H12.5761H12.5877H12.5993H12.6109H12.6226H12.6343H12.6461H12.6578H12.6697H12.6815H12.6934H12.7053H12.7173H12.7293H12.7413H12.7534H12.7654H12.7776H12.7897H12.8019H12.8142H12.8264H12.8387H12.851H12.8634H12.8758H12.8882H12.9007H12.9131H12.9257H12.9382H12.9508H12.9634H12.9761H12.9888H13.0015H13.0142H13.027H13.0398H13.0527H13.0656H13.0785H13.0914H13.1044H13.1174H13.1304H13.1435H13.1566H13.1697H13.1829H13.196H13.2093H13.2225H13.2358H13.2491H13.2624H13.2758H13.2892H13.3027H13.3161H13.3296H13.3431H13.3567H13.3703H13.3839H13.3975H13.4112H13.4249H13.4386H13.4524H13.4662H13.48H13.4938H13.5077H13.5216H13.5356H13.5495H13.5635H13.5775H13.5916H13.6057H13.6198H13.6339H13.6481H13.6622H13.6765H13.6907H13.705H13.7193H13.7336H13.748H13.7623H13.7767H13.7912H13.8056H13.8201H13.8347H13.8492H13.8638H13.8784H13.893H13.9077H13.9223H13.937H13.9518H13.9665H13.9813H13.9961H14.011H14.0258H14.0407H14.0556H14.0706H14.0855H14.1005H14.1155H14.1306H14.1456H14.1607H14.1758H14.191H14.2061H14.2213H14.2365H14.2518H14.2671H14.2823H14.2977H14.313H14.3284H14.3437H14.3592H14.3746H14.39H14.4055H14.421H14.4366H14.4521H14.4677H14.4833H14.4989H14.5146H14.5302H14.5459H14.5616H14.5774H14.5931H14.6089H14.6247H14.6406H14.6564H14.6723H14.6882H14.7041H14.72H14.736H14.752H14.768H14.784H14.8001H14.8161H14.8322H14.8483H14.8645H14.8806H14.8968H14.913H14.9292H14.9455H14.9617H14.978H14.9943H15.0106H15.027H15.0433H15.0597H15.0761H15.0926H15.109H15.1255H15.1419H15.1585H15.175H15.1915H15.2081H15.2247H15.2413H15.2579H15.2745H15.2912H15.3079H15.3246H15.3413H15.358H15.3748H15.3916H15.4084H15.4252H15.442H15.4588H15.4757H15.4926H15.5095H15.5264H15.5433H15.5603H15.5773H15.5943H15.6113H15.6283H15.6453H15.6624H15.6795H15.6966H15.7137H15.7308H15.748H15.7651H15.7823H15.7995H15.8167H15.8339H15.8512H15.8684H15.8857H15.903H15.9203H15.9377H15.955H15.9724H15.9897H16.0071H16.0245H16.0419H16.0594H16.0768H16.0943H16.1118H16.1293H16.1468H16.1643H16.1818H16.1994H16.217H16.2346H16.2522H16.2698H16.2874H16.305H16.3227H16.3404H16.358H16.3757H16.3935H16.4112H16.4289H16.4467H16.4644H16.4822H16.5H16.5178H16.5356H16.5533H16.5711H16.5888H16.6065H16.6243H16.642H16.6596H16.6773H16.695H16.7126H16.7302H16.7478H16.7654H16.783H16.8006H16.8182H16.8357H16.8532H16.8707H16.8882H16.9057H16.9232H16.9406H16.9581H16.9755H16.9929H17.0103H17.0276H17.045H17.0623H17.0797H17.097H17.1143H17.1316H17.1488H17.1661H17.1833H17.2005H17.2177H17.2349H17.252H17.2692H17.2863H17.3034H17.3205H17.3376H17.3547H17.3717H17.3887H17.4057H17.4227H17.4397H17.4567H17.4736H17.4905H17.5074H17.5243H17.5412H17.558H17.5748H17.5916H17.6084H17.6252H17.642H17.6587H17.6754H17.6921H17.7088H17.7255H17.7421H17.7587H17.7753H17.7919H17.8085H17.825H17.8415H17.8581H17.8745H17.891H17.9074H17.9239H17.9403H17.9567H17.973H17.9894H18.0057H18.022H18.0383H18.0545H18.0708H18.087H18.1032H18.1194H18.1355H18.1517H18.1678H18.1839H18.1999H18.216H18.232H18.248H18.264H18.28H18.2959H18.3118H18.3277H18.3436H18.3594H18.3753H18.3911H18.4069H18.4226H18.4384H18.4541H18.4698H18.4854H18.5011H18.5167H18.5323H18.5479H18.5634H18.579H18.5945H18.61H18.6254H18.6408H18.6563H18.6716H18.687H18.7023H18.7177H18.7329H18.7482H18.7635H18.7787H18.7939H18.809H18.8242H18.8393H18.8544H18.8694H18.8845H18.8995H18.9145H18.9294H18.9444H18.9593H18.9742H18.989H19.0039H19.0187H19.0335H19.0482H19.063H19.0777H19.0923H19.107H19.1216H19.1362H19.1508H19.1653H19.1799H19.1944H19.2088H19.2233H19.2377H19.252H19.2664H19.2807H19.295H19.3093H19.3235H19.3378H19.3519H19.3661H19.3802H19.3943H19.4084H19.4225H19.4365H19.4505H19.4644H19.4784H19.4923H19.5062H19.52H19.5338H19.5476H19.5614H19.5751H19.5888H19.6025H19.6161H19.6297H19.6433H19.6569H19.6704H19.6839H19.6973H19.7108H19.7242H19.7376H19.7509H19.7642H19.7775H19.7907H19.804H19.8171H19.8303H19.8434H19.8565H19.8696H19.8826H19.8956H19.9086H19.9215H19.9344H19.9473H19.9602H19.973H19.9858H19.9985H20.0112H20.0239H20.0366H20.0492H20.0618H20.0743H20.0869H20.0993H20.1118H20.1242H20.1366H20.149H20.1613H20.1736H20.1859H20.1981H20.2103H20.2224H20.2346H20.2466H20.2587H20.2707H20.2827H20.2947H20.3066H20.3185H20.3303H20.3422H20.3539H20.3657H20.3774H20.3891H20.4007H20.4123H20.4239H20.4355H20.447H20.4584H20.4699H20.4813H20.4926H20.504H20.5153H20.5265H20.5377H20.5489H20.5601H20.5712H20.5823H20.5933H20.6043H20.6153H20.6262H20.6371H20.648H20.6588H20.6696H20.6803H20.6911H20.7017H20.7124H20.723H20.7335H20.7441H20.7546H20.765H20.7754H20.7858H20.7961H20.8064H20.8167H20.8269H20.8371H20.8473H20.8574H20.8674H20.8775H20.8875H20.8974H20.9073H20.9172H20.9271H20.9369H20.9466H20.9563H20.966H20.9757H20.9853H20.9948H21.0044H21.0139H21.0233H21.0327H21.0421H21.0514H21.0607H21.0699H21.0791H21.0883H21.0974H21.1065H21.1156H21.1246H21.1335H21.1424H21.1513H21.1602H21.169H21.1777H21.1864H21.1951H21.2037H21.2123H21.2209H21.2294H21.2379H21.2463H21.2547H21.263H21.2713H21.2796H21.2878H21.296H21.3041H21.3122H21.3202H21.3282H21.3362H21.3441H21.352H21.3598H21.3676H21.3753H21.383H21.3907H21.3983H21.4059H21.4134H21.4209H21.4283H21.4357H21.4431H21.4504H21.4576H21.4649H21.472H21.4792H21.4863H21.4933H21.5003H21.5072H21.5141H21.521H21.5278H21.5346H21.5413H21.548H21.5546H21.5612H21.5678H21.5743H21.5807H21.5871H21.5935H21.5998H21.6061H21.6123H21.6185H21.6246H21.6307H21.6368H21.6428H21.6487H21.6546H21.6605H21.6663H21.672H21.6777H21.6834H21.689H21.6946H21.7001H21.7056H21.711H21.7164H21.7217H21.727H21.7323H21.7374H21.7426H21.7477H21.7527H21.7577H21.7627H21.7676H21.7724H21.7772H21.782H21.7867H21.7914H21.796H21.8005H21.805H21.8095H21.8139H21.8183H21.8226H21.8268H21.8311H21.8352H21.8393H21.8434H21.8474H21.8514H21.8553H21.8592H21.863H21.8667H21.8705H21.8741H21.8777H21.8813H21.8848H21.8883H21.8917H21.895H21.8983H21.9016H21.9048H21.9079H21.911H21.9141H21.9171H21.92H21.9229H21.9258H21.9286H21.9313H21.934H21.9366H21.9392H21.9417H21.9442H21.9466H21.949H21.9513H21.9536H21.9558H21.958H21.9601H21.9621H21.9641H21.9661H21.968H21.9698H21.9716H21.9733H21.975H21.9766H21.9782H21.9797H21.9812H21.9826H21.984H21.9853H21.9865H21.9877H21.9888H21.9899H21.991H21.9919H21.9928H21.9937H21.9945H21.9953H21.996H21.9966H21.9972H21.9977H21.9982H21.9986H21.999H21.9993H21.9995H21.9997H21.9999H22L22 8Z" stroke="black" stroke-width="2"/>
<path fill-rule="evenodd" clip-rule="evenodd" d="M12 24C12 27.3137 9.31372 30 6 30C2.68628 30 0 27.3137 0 24C0 20.6863 2.68628 18 6 18C9.31372 18 12 20.6863 12 24ZM7 23H10V25H7V28H5V25H2V23H5V20H7V23Z" fill="black"/>
</svg>
